<?xml version="1.0" encoding="UTF-8" standalone="no"?>

<svg
   xmlns:osb="http://www.openswatchbook.org/uri/2009/osb"
   xmlns:dc="http://purl.org/dc/elements/1.1/"
   xmlns:cc="http://creativecommons.org/ns#"
   xmlns:rdf="http://www.w3.org/1999/02/22-rdf-syntax-ns#"
   xmlns:svg="http://www.w3.org/2000/svg"
   xmlns="http://www.w3.org/2000/svg"
   xmlns:xlink="http://www.w3.org/1999/xlink"
   xmlns:sodipodi="http://sodipodi.sourceforge.net/DTD/sodipodi-0.dtd"
   xmlns:inkscape="http://www.inkscape.org/namespaces/inkscape"
   version="1.1"
   id="Layer_1"
   x="0px"
   y="0px"
   width="100px"
   height="100px"
   viewBox="0 0 100 100"
   enable-background="new 0 0 100 100"
   xml:space="preserve"
   inkscape:version="0.48.4 r9939"
   sodipodi:docname="kombijsport-logo.svg"><metadata
     id="metadata157"><rdf:RDF><cc:Work
         rdf:about=""><dc:format>image/svg+xml</dc:format><dc:type
           rdf:resource="http://purl.org/dc/dcmitype/StillImage" /><dc:title /></cc:Work></rdf:RDF></metadata><defs
     id="defs155"><linearGradient
       id="linearGradient3828"
       osb:paint="solid"><stop
         style="stop-color:#0066b2;stop-opacity:1;"
         offset="0"
         id="stop3830" /></linearGradient><linearGradient
       inkscape:collect="always"
       xlink:href="#linearGradient3828"
       id="linearGradient3832"
       x1="96"
       y1="33"
       x2="1e+02"
       y2="33"
       gradientUnits="userSpaceOnUse" /></defs><sodipodi:namedview
     pagecolor="#ffffff"
     bordercolor="#666666"
     borderopacity="1"
     objecttolerance="10"
     gridtolerance="10"
     guidetolerance="10"
     inkscape:pageopacity="0"
     inkscape:pageshadow="2"
     inkscape:window-width="1004"
     inkscape:window-height="723"
     id="namedview153"
     showgrid="false"
     inkscape:zoom="2.8"
     inkscape:cx="70"
     inkscape:cy="67"
     inkscape:window-x="1492"
     inkscape:window-y="64"
     inkscape:window-maximized="0"
     inkscape:current-layer="Layer_1" /><path
     d="M23.809,50.311"
     id="path3" /><g
     id="g5"><polygon
       points="9.296,61.324 6.803,61.965 5.875,61.416 8.503,58.239 7.979,56.2 4.471,60.594 0.659,58.273 1.186,60.324    4.926,62.447 1.93,63.219 2.338,64.803 9.704,62.91  "
       id="polygon7" /><path
       d="M3.878,53.049c3.568,0.117,4.093-2.595,4.127-3.631c0.035-1.036-0.309-3.777-3.876-3.895   c-3.567-0.118-4.093,2.595-4.127,3.631C-0.033,50.19,0.311,52.932,3.878,53.049z M4.075,47.159c2.128,0.07,2.616,1.332,2.586,2.215   c-0.029,0.883-0.6,2.109-2.728,2.039c-2.128-0.069-2.616-1.331-2.586-2.214C1.375,48.314,1.946,47.088,4.075,47.159z"
       id="path9" /><polygon
       points="9.103,40.529 3.098,38.446 3.104,38.426 9.579,39.158 10.105,37.643 4.579,34.179 4.586,34.158 10.592,36.241    11.093,34.798 3.906,32.305 3.129,34.542 8.336,37.827 8.33,37.847 2.199,37.222 1.415,39.48 8.602,41.973  "
       id="polygon11" /><path
       d="M15.015,28.556c0.942-1.299,0.978-1.799,0.897-2.41c-0.074-0.566-0.383-1.114-0.872-1.469   c-0.609-0.442-1.356-0.674-2.204-0.103c0.064-0.358,0.187-1.051-0.697-1.692c-0.634-0.46-1.866-0.748-2.994,0.807l-2.237,3.083   l6.158,4.469L15.015,28.556z M8.895,26.272l1.102-1.52c0.436-0.601,0.859-0.859,1.366-0.492c0.489,0.355,0.385,0.913,0.007,1.434   l-1.128,1.555L8.895,26.272z M11.279,28.002l1.224-1.687c0.346-0.477,0.898-0.805,1.438-0.413c0.626,0.455,0.631,1.024,0.164,1.669   l-1.179,1.625L11.279,28.002z"
       id="path13" /><rect
       x="13.958"
       y="19.095"
       transform="matrix(0.6655 0.7464 -0.7464 0.6655 20.8027 -6.5958)"
       width="7.606"
       height="1.637"
       id="rect15" /><path
       d="M25.289,17.706c-0.75,0.446-1.124-0.01-1.735-1.039l-1.313,0.78c0.741,1.248,1.563,2.631,3.806,1.299   c1.351-0.803,1.692-1.917,0.87-3.301l-2.76-4.643l-1.407,0.836l2.759,4.643C25.807,16.782,26.021,17.271,25.289,17.706z"
       id="path17" /><path
       d="M38.044,10.649l0.86,0.054c0.849,0.056,1.456,0.118,1.551,0.704c0.129,0.795-0.693,1.111-1.458,1.235   c-1.411,0.229-1.755-0.531-1.834-0.948l-1.551,0.251c0.151,0.931,0.892,2.432,3.714,1.974c0.679-0.11,3.017-0.693,2.65-2.952   c-0.219-1.349-1.256-1.61-2.353-1.69l-1.958-0.144c-0.335-0.021-0.851-0.066-0.946-0.651c-0.11-0.68,0.586-1.019,1.201-1.118   c1.411-0.229,1.669,0.545,1.767,0.873l1.551-0.251c-0.16-0.919-1.04-2.322-3.41-1.938c-2.51,0.407-2.734,1.957-2.598,2.793   C35.498,10.493,36.748,10.569,38.044,10.649z"
       id="path19" /><path
       d="M47.5,10.563l1.87,0.161c2.099,0.18,2.639-1.516,2.697-2.202c0.128-1.488-0.705-2.505-2.216-2.635L46.285,5.58l-0.65,7.576   l1.631,0.14L47.5,10.563z M47.803,7.028l1.294,0.111c1.011,0.087,1.409,0.429,1.346,1.168c-0.029,0.337-0.102,1.182-1.319,1.077   l-1.511-0.13L47.803,7.028z"
       id="path21" /><path
       d="M58.461,15.891c0.969,0.369,3.672,0.935,4.943-2.4c1.271-3.335-1.123-4.712-2.092-5.081s-3.672-0.935-4.942,2.4   C55.099,14.145,57.492,15.521,58.461,15.891z M57.898,11.393c0.759-1.989,2.109-2.041,2.935-1.726   c0.826,0.314,1.8,1.252,1.042,3.241s-2.108,2.041-2.935,1.726C58.114,14.319,57.142,13.381,57.898,11.393z"
       id="path23" /><path
       d="M68.241,17.46l1.352,1.017c0.968,0.729,0.778,1.089,0.154,1.919c-0.472,0.626-0.654,0.979-0.783,1.333l1.446,1.089   l0.121-0.161c-0.203-0.312-0.037-0.532,0.632-1.421c0.853-1.135,0.714-1.531,0.365-2.138c0.771,0.262,1.554-0.051,2.056-0.72   c0.396-0.525,0.988-1.949-0.678-3.202l-3.165-2.381l-4.57,6.081l1.281,0.964L68.241,17.46z M70.233,14.809l1.631,1.227   c0.767,0.577,0.559,1.163,0.317,1.485c-0.452,0.602-0.956,0.581-1.636,0.069l-1.534-1.154L70.233,14.809z"
       id="path25" /><polygon
       points="75.147,28.231 80.073,24.363 81.535,26.226 82.593,25.395 78.658,20.382 77.6,21.213 79.062,23.076 74.137,26.943     "
       id="polygon27" /><path
       d="M12.736,75.818c0.029-0.203,0.002-0.459-0.079-0.77c0.2,0.109,0.381,0.175,0.543,0.194c0.309,0.04,0.611-0.043,0.906-0.249   c0.252-0.177,0.426-0.402,0.521-0.678c0.159-0.466,0.042-0.98-0.353-1.544l-1.447-2.065L8.16,73.979l1.424,2.033   c0.443,0.633,0.949,0.967,1.517,1.001c0.38,0.023,0.72-0.069,1.021-0.28C12.479,76.48,12.685,76.176,12.736,75.818z M11.693,76.061   c-0.201,0.141-0.41,0.207-0.627,0.2c-0.344-0.013-0.656-0.219-0.936-0.618l-0.984-1.404l1.643-1.15l0.906,1.293   c0.191,0.271,0.312,0.514,0.362,0.727C12.154,75.506,12.032,75.823,11.693,76.061z M11.301,72.729l1.446-1.013l0.814,1.161   c0.198,0.284,0.319,0.52,0.36,0.705c0.073,0.329-0.043,0.601-0.348,0.814c-0.303,0.213-0.597,0.239-0.881,0.08   c-0.181-0.1-0.368-0.288-0.561-0.563L11.301,72.729z"
       id="path29" /><path
       d="M17.947,77.164l-5.602,2.447l0.575,0.579l1.659-0.752l1.636,1.647l-0.792,1.625l0.614,0.619l2.544-5.527L17.947,77.164z    M16.48,80.462l-1.295-1.304l2.454-1.104L16.48,80.462z"
       id="path31" /><path
       d="M23.44,81.834l-1.946-1.367l-3.275,4.666l1.939,1.361c0.825,0.578,1.654,0.633,2.488,0.163   c0.473-0.265,0.883-0.646,1.231-1.142c0.45-0.641,0.657-1.281,0.621-1.92C24.453,82.885,24.101,82.297,23.44,81.834z    M23.138,85.158c-0.106,0.15-0.236,0.302-0.393,0.454c-0.264,0.255-0.525,0.431-0.786,0.529c-0.327,0.122-0.646,0.136-0.956,0.04   c-0.173-0.055-0.37-0.16-0.59-0.314l-1.161-0.814l2.515-3.584l1.155,0.812c0.525,0.369,0.794,0.796,0.806,1.282   C23.74,84.049,23.543,84.58,23.138,85.158z"
       id="path33" /><polygon
       points="29.894,88.049 27.114,86.787 28.087,84.643 27.356,84.311 25,89.5 25.731,89.832 26.833,87.405 29.613,88.668    28.512,91.094 29.243,91.426 31.599,86.236 30.868,85.904  "
       id="polygon35" /><path
       d="M36.31,87.452c-0.964-0.23-1.774-0.063-2.43,0.505c-0.511,0.441-0.856,1.037-1.035,1.787   c-0.198,0.83-0.138,1.57,0.181,2.221c0.368,0.684,0.992,1.131,1.87,1.34c0.94,0.225,1.742,0.076,2.404-0.447   c0.563-0.444,0.944-1.081,1.142-1.908c0.182-0.766,0.143-1.438-0.118-2.02C37.989,88.186,37.318,87.692,36.31,87.452z    M37.646,90.771c-0.147,0.616-0.43,1.126-0.847,1.526c-0.418,0.402-0.968,0.521-1.649,0.359c-0.718-0.172-1.187-0.507-1.406-1.004   c-0.219-0.498-0.256-1.055-0.109-1.668c0.184-0.768,0.508-1.303,0.976-1.608c0.467-0.304,0.997-0.386,1.587-0.245   c0.609,0.146,1.042,0.459,1.298,0.939C37.751,89.553,37.802,90.119,37.646,90.771z"
       id="path37" /><polygon
       points="40.997,94.202 45.331,94.42 45.365,93.742 41.805,93.563 41.902,91.633 45.139,91.796 45.172,91.137    41.935,90.975 42.022,89.246 45.522,89.422 45.558,88.725 41.283,88.51  "
       id="polygon39" /><polygon
       points="50.709,93.162 48.419,88.563 47.547,88.674 50.393,94.055 51.229,93.948 52.629,88.022 51.745,88.136  "
       id="polygon41" /><polygon
       points="56.446,92.207 55.886,90.357 58.987,89.417 58.796,88.786 55.694,89.727 55.192,88.07 58.547,87.054    58.344,86.385 54.248,87.627 55.901,93.081 60.056,91.822 59.857,91.173  "
       id="polygon43" /><path
       d="M64.555,84.373c-0.648-0.293-1.333-0.256-2.052,0.111l-2.118,1.081l2.592,5.076l2.111-1.077   c0.896-0.459,1.333-1.166,1.308-2.123c-0.014-0.543-0.158-1.082-0.434-1.621C65.605,85.121,65.137,84.64,64.555,84.373z    M65.618,87.808c-0.046,0.346-0.183,0.634-0.412,0.864c-0.13,0.127-0.313,0.252-0.554,0.374l-1.264,0.646l-1.99-3.898l1.256-0.642   c0.572-0.292,1.076-0.329,1.511-0.113c0.436,0.216,0.813,0.64,1.135,1.269c0.083,0.163,0.156,0.35,0.218,0.559   C65.619,87.217,65.653,87.531,65.618,87.808z"
       id="path45" /><path
       d="M70.708,79.984c-0.79-0.207-1.595,0.006-2.415,0.64c-0.783,0.606-1.161,1.342-1.132,2.208   c0.023,0.676,0.271,1.317,0.741,1.928c0.522,0.676,1.137,1.094,1.842,1.254c0.764,0.143,1.503-0.063,2.218-0.614   c0.766-0.591,1.152-1.308,1.161-2.151c0.007-0.719-0.249-1.414-0.77-2.088C71.873,80.537,71.324,80.146,70.708,79.984z    M71.615,84.795c-0.584,0.451-1.139,0.605-1.663,0.464c-0.525-0.142-0.98-0.463-1.367-0.962c-0.482-0.625-0.695-1.214-0.639-1.77   c0.056-0.555,0.324-1.018,0.805-1.389c0.496-0.383,1.012-0.523,1.547-0.42c0.536,0.103,1.008,0.419,1.417,0.949   c0.388,0.502,0.606,1.041,0.657,1.617C72.422,83.863,72.17,84.365,71.615,84.795z"
       id="path47" /><path
       d="M79.127,77.529c-0.1-0.048-0.233-0.142-0.4-0.279l-0.591-0.486c-0.256-0.211-0.479-0.32-0.665-0.332   c-0.188-0.011-0.391,0.039-0.61,0.15c0.074-0.283,0.078-0.551,0.013-0.804c-0.067-0.253-0.228-0.492-0.482-0.719   c-0.489-0.435-1.009-0.526-1.557-0.275c-0.287,0.134-0.58,0.368-0.877,0.702l-1.804,2.033l4.264,3.783l0.528-0.596l-1.829-1.622   l1.202-1.354c0.216-0.242,0.399-0.398,0.553-0.465c0.271-0.115,0.553-0.057,0.844,0.177l0.743,0.595   c0.174,0.141,0.295,0.229,0.363,0.269c0.068,0.04,0.13,0.066,0.185,0.079l0.647-0.729l-0.096-0.085   C79.437,77.628,79.294,77.614,79.127,77.529z M75.854,77.282l-1.22,1.376l-1.457-1.293l1.289-1.453   c0.181-0.203,0.354-0.34,0.52-0.41c0.312-0.129,0.619-0.059,0.923,0.211c0.283,0.25,0.406,0.504,0.37,0.763   C76.244,76.734,76.103,77.003,75.854,77.282z"
       id="path49" /><path
       d="M80.679,71.779c0.311-0.503,0.399-0.963,0.269-1.379s-0.386-0.74-0.765-0.974c-0.44-0.271-0.866-0.346-1.277-0.224   s-0.753,0.405-1.027,0.85l-1.386,2.249l4.852,2.991l0.417-0.678l-2.051-1.264L80.679,71.779z M77.474,71.973l0.83-1.348   c0.161-0.26,0.322-0.444,0.482-0.553c0.296-0.193,0.621-0.18,0.979,0.041c0.317,0.195,0.479,0.426,0.488,0.693   c0.01,0.267-0.08,0.552-0.268,0.855l-0.83,1.348L77.474,71.973z"
       id="path51" /><path
       d="M50.916,35.371c0,0-0.65,1.543,0.232,1.511c0.882-0.033,1.478-1.246,1.478-1.246s0.43-1.523-0.209-1.623   C51.776,33.914,50.916,35.371,50.916,35.371z"
       id="path53" /><path
       d="M69.39,40.569c0.404,0.012,1.083-0.565,1.222-1.169c0.137-0.583-0.261-1.194-0.261-1.194s-0.614,0.606-1.136,0.656   c-0.553,0.056-1.022-0.455-1.381-0.71c-0.291-0.209-0.309-0.507-0.333-0.699c-0.031-0.265,0.042-0.414,0.042-0.414   s1.206-2.251,0.596-3.296c-0.213-0.343-0.497-0.502-0.701-0.126c-0.205,0.376-0.218,1.005-0.218,1.005s-0.499,2.047-0.776,2.338   c-0.277,0.292-0.795,0.358-0.795,0.677c0,0.319,0.066,1.145,0.066,1.145s-0.237,1.736-0.607,1.749   c-0.371,0.012-0.419-0.391-0.419-0.391s-0.028-2.106,0.098-4.399c0.041-0.743,0.19-1.54,0.246-2.241   c0.135-1.61,0.187-2.862,0.187-2.862s-0.006-1.529-0.86-1.887c-0.855-0.358-0.762,0.828-0.762,0.828s-0.1,4.437-0.817,7.497   c-0.433,1.856-1.375,2.655-1.633,2.966c-0.259,0.31-1.435,1.206-2.241,1.163c-1.428-0.07-1.169-1.13-1.169-1.13   s0.644-0.587,1.21-1.353c0.449-0.603,0.834-1.337,0.939-1.848c0.209-1.018-0.879-1.173-1.256-1.12   c-0.377,0.054-1.376,0.813-2.038,2.02c-0.666,1.217-0.619,2.777-0.619,2.777s-0.914,1.538-1.626,1.339   c-0.917-0.257-1.235-1.736-1.387-2.014c-0.151-0.277-1.045-0.451-1.184-0.166c-0.139,0.286-2.643,4.826-2.974,5.331   c-0.331,0.505-0.569-0.298-0.569-0.298s-0.199-0.875-0.263-1.949c-0.102-1.728-0.089-3.977-0.089-3.977s0.801-0.232,0.815-0.397   c0.006-0.079-0.083-0.397-0.135-0.718c-0.06-0.373-0.091-0.743-0.197-0.706c-0.089,0.029-0.256,0.052-0.327-0.019   c-0.089-0.089-0.07-0.279-0.07-0.279s0.231-1.357-0.265-1.357c-0.261,0-0.52,0.236-0.642,0.563c-0.107,0.3-0.089,0.676-0.12,0.993   c-0.066,0.662-0.397,0.729-0.397,0.729s-1.292,0.548-2.239,0.887c-0.401,0.147-0.687,0.178-0.873,0.238   c-0.629,0.199-0.43,0.53-0.43,0.53s0.091,1.171,0.331,1.159c0.24-0.012,2.351-0.828,2.814-0.993s0.298,0.463,0.298,0.463   s-0.582,2.521-1.461,4.75c-0.611,1.554-1.366,2.686-1.619,3.064s-0.935,0.927-1.585,0.966c-0.675,0.043-1.063-0.801-1.063-0.801   s2.113-4.325,1.887-5c-0.226-0.675-0.252-1.152-1.093-0.96c-0.84,0.193-1.359,0.932-1.844,2.347   c-0.637,1.866-0.44,4.341-0.44,4.341s-0.209,0.192-0.472,0.623c-0.366,0.606-0.885,1.564-1.479,2.062   c-0.298,0.252-0.64,0.225-0.923,0.283c-0.985,0.194-1.662-1.922-1.662-1.922s0.534-1.9,0.776-4.068   c0.232-2.073,0.172-4.523,0.135-6.415c-0.033-1.682-0.249-2.599-1.175-2.812c-0.927-0.213-1.523,2.715-1.523,2.715   s-0.366,3.56-0.186,6.711c0.149,2.607,0.848,4.91,0.848,4.91s-1.49,4.271-1.821,5.464c-0.331,1.191-0.743-0.518-0.743-0.518   s-0.256-1.428-0.428-3.042c-0.252-2.378-0.451-5.248-0.451-5.248s0.72-0.683,0.695-0.96s-0.443-1.604-0.497-1.788   s-0.478-0.052-0.497-0.431c-0.019-0.378,0-0.96-0.033-1.357c-0.033-0.397-0.298-0.794-0.662-0.728   c-0.364,0.066-0.403,0.689-0.403,0.689s-0.027,1.231-0.06,1.959c-0.033,0.729-0.397,0.795-0.397,0.795s-2.02,0.993-2.781,1.39   c-0.761,0.397-0.364,0.894-0.364,0.894l0.298,1.391c0,0,0.192,0.376,0.662,0.166s2.02-1.125,2.02-1.125s0.463-0.114,0.463,0.132   c0,0.247-0.147,3.377-0.525,6.347c-0.279,2.21-0.722,4.207-1.136,4.354c-0.443,0.154-0.801-0.197-0.979-0.67   c-0.211-0.566-0.199-1.297-0.24-1.39c-0.079-0.174-0.449-1.054-0.662-1.093s-0.403,0.377-0.403,0.377s-0.145,0.447-0.346,1.25   c-0.093,0.387-0.132,0.991-0.24,1.459c-0.081,0.357-0.161,0.729-0.238,1.099c-0.124,0.599-0.112,1.2-0.23,1.729   c-0.221,0.998-0.416,1.764-0.509,1.879c-0.298,0.365-0.306-0.072-0.286-0.773c0.008-0.303-0.019-1.32,0.122-2.583   c0.145-1.278,0.453-2.806,0.654-4.19c0.234-1.605,0.516-2.984,0.615-3.457c0.265-1.292,0.099-1.722-0.364-1.689   c-0.463,0.033-0.894,1.226-0.894,1.226s-0.714,2.338-1.203,5.001c-0.281,1.54-0.378,3.221-0.538,4.477   c-0.159,1.272-0.325,1.581-0.325,2.138c0,0.556,0.105,1.114,0.474,2.31c0.114,0.367,0.427,0.678,0.546,1.051   c0.327,1.008,0.561,2.075,0.952,2.063c0.305-0.012,0.667-0.805,0.867-1.947c0.112-0.633,0.085-1.402,0.19-2.137   c0.045-0.321,0.234-0.578,0.277-0.895c0.273-1.922,0.248-3.662,0.606-3.81c0.358-0.147,0.821,2.171,1.769,2.026   c0.245-0.039,0.735-0.508,1.043-1.406c0.888-2.563,1.3-7.546,1.591-7.514c0.195,0.021,0.559,3.198,0.987,5.24   c0.213,1.014,0.495,1.635,0.674,1.68c0.18,0.047,0.807,0.173,0.861-0.033c0.054-0.203,1.873-7.305,1.986-7.614   c0.114-0.311,0.331-0.636,0.43-0.53c0.1,0.105,0.72,1.756,1.993,1.662c1.273-0.094,3.555-4.19,3.555-4.19s0.849,1.091,1.803,0.84   c0.954-0.25,1.593-1.064,2.361-2.245c1.563-2.398,2.56-5.318,2.639-5.436c0.078-0.118,0.231,0.132,0.231,0.132   s0.343,4.019,0.729,4.337c0.385,0.319,0.476,0.292,0.84,0.265c0.151-0.013,0.646-0.981,1.236-2.078   c0.817-1.513,1.766-3.286,1.766-3.286s0.247-0.277,0.529-0.234c0.25,0.042,0.536,0.406,0.536,0.406s0.807,0.987,1.755,1.02   c0.947,0.033,2.277-2.152,2.277-2.152s0.356,1.231,2.186,1.225c1.829-0.006,4.477-3.742,4.603-3.874   c0.127-0.132,0.231,0.166,0.231,0.166s0.218,3.588,1.165,3.522c0.948-0.066,1.999-2.694,2.065-2.748s0.126-0.132,0.392-0.072   c0.2,0.045,1.01,0.631,1.744,0.883C68.96,40.58,69.2,40.561,69.39,40.569z M34.162,47.323c-0.354,0.089-0.232-5.74-0.232-5.74   s0.375-1.312,0.584-1.269c0.208,0.043,0.672-0.137,0.335,3.872C34.717,45.761,34.516,47.234,34.162,47.323z M40.364,46.728   c-0.331-0.054,0.199-1.92,0.199-1.92s0.354-0.973,0.652-0.774s0.199,0.774,0.199,0.774S40.507,46.781,40.364,46.728z M57.79,37.775   c0.176-0.188,0.486-0.517,0.695-0.286c0.209,0.232-0.011,0.729-0.153,0.938c-0.144,0.209-0.785,0.904-0.982,0.828   C57.15,39.178,57.614,37.964,57.79,37.775z"
       id="path55" /></g><path
     d="M96.153,34.928c-0.766-0.673-0.232-1.86,0.742-2.614c0.847-0.652,2.056-0.973,2.701-0.41  c0.814,0.712,0.302,2.061-0.702,2.818C98.063,35.352,96.85,35.541,96.153,34.928z"
     id="path57"
     style="fill:url(#linearGradient3832);fill-opacity:1" /><path
     d="M99.706,41.993l-0.109,1.765l-1.897,1.964l-3.026-3.95c0,0-0.527,0.53-1.278,0.42  c-0.751-0.109-0.927-0.904-0.266-2.847c0.663-1.943,2.054-2.231,2.339-1.854c0.286,0.376,2.517,5.649,2.517,5.649L99.706,41.993z"
     id="path59"
     style="fill:#0066b2;fill-opacity:1" /><polygon
     points="80.304,63.623 87.389,47.599 90.723,48.327 91.76,46.649 92.62,46.628 94.189,51.35 87.81,53.779   81.563,63.514 "
     id="polygon61"
     style="fill:url(#linearGradient3828);fill-opacity:1" /><path
     d="M31.679,61.328c0.128-0.012,0.024,0.195,0,0.266c-0.249,0.641-0.625,1.33-0.927,1.986  c-0.267,0-0.53,0-0.795,0c0.12-0.264,0.77-1.925,0.861-1.986L31.679,61.328z"
     id="path63"
     style="fill:url(#linearGradient3828)" /><path
     d="M28.964,60.799v0.133c0.035,0.104,0.254,0.128,0.331,0.198c-0.025,0.074,0.019,0.188,0,0.265  c-0.041,0.151-0.267,0.385-0.331,0.53c-0.027,0.054,0.012,0.143,0,0.198c-0.072,0.299-0.565,1.102-0.729,1.457  c-0.223,0-0.44,0-0.662,0c0.112-0.277,0.197-0.527,0.332-0.795C28.225,62.142,28.614,61.418,28.964,60.799z"
     id="path65"
     style="fill:url(#linearGradient3828)" /><path
     d="M20.819,56.561c-0.07,0.467-0.074,0.924-0.199,1.391c-0.124,0.451-0.478,0.91-0.662,1.324  c-0.027,0.055,0.012,0.143,0,0.199c-0.05,0.205-0.311,0.466-0.397,0.662c-0.509,1.132-1.008,2.219-1.457,3.377  c-0.151,0-0.314-0.029-0.463,0c0.128-0.318,0.252-0.602,0.397-0.928c0.151-0.348,0.29-0.682,0.463-1.059  c0.05-0.111,0.236-0.283,0.265-0.397c0.013-0.056-0.027-0.145,0-0.198c0.066-0.149,0.294-0.379,0.331-0.529  c0.009-0.041-0.016-0.164,0-0.199c0.066-0.149,0.292-0.373,0.332-0.53c0.012-0.056-0.027-0.145,0-0.198  c0.149-0.336,0.582-0.928,0.662-1.258c0.012-0.057-0.027-0.146,0-0.199C20.302,57.542,20.625,57.057,20.819,56.561z"
     id="path67"
     style="fill:url(#linearGradient3828)" /><path
     d="M37.109,55.104c0.256-0.024-0.323,0.891-0.397,1.061c-1.105,2.504-2.297,4.941-3.443,7.416  c-0.292,0-0.571,0-0.861,0c0.838-2.063,1.949-4.027,2.848-6.025c0.248-0.559,0.36-1.068,0.662-1.59  c0.049-0.089,0.209-0.178,0.265-0.266c0.043-0.071,0.072-0.291,0.132-0.33C36.362,55.334,37.067,55.105,37.109,55.104z"
     id="path69"
     style="fill:url(#linearGradient3828)" /><path
     d="M40.618,52.124c0.172-0.056,0.476,0,0.662,0c0,0-0.122,0.187-0.066,0.198  c-1.837,3.672-3.495,7.512-5.231,11.258c-0.304,0-0.625,0-0.927,0c0.273-0.592,0.461-1.13,0.728-1.722  c0.087-0.196,0.348-0.46,0.397-0.663c0.013-0.055-0.027-0.145,0-0.197c0.087-0.197,0.348-0.46,0.397-0.662  c0.012-0.057-0.027-0.146,0-0.199c0.164-0.366,0.646-1.053,0.729-1.391c0.012-0.056-0.027-0.145,0-0.199  c0.215-0.482,0.577-1.043,0.794-1.522c0.397-0.888,0.815-1.747,1.192-2.583c0.224-0.503,0.313-0.994,0.596-1.457  c0.146-0.246,0.414-0.439,0.596-0.662C40.534,52.261,40.529,52.15,40.618,52.124z"
     id="path71"
     style="fill:url(#linearGradient3828)" /><path
     d="M24.329,48.879"
     id="path73" /><path
     d="M46.975,48.482c0.331,0.122,0.549,0.169,0.927,0.265c-1.289,2.772-2.45,5.536-3.708,8.343  c-0.95,2.117-2.057,4.214-2.914,6.424c-0.281,0.021-0.743,0.066-1.125,0.066c0.611-1.577,1.382-3.051,2.053-4.569  c0.126-0.292,0.192-0.561,0.331-0.86c0.048-0.105,0.238-0.288,0.265-0.398c0.012-0.055-0.027-0.145,0-0.197  c0.064-0.145,0.292-0.375,0.331-0.53c0.012-0.056-0.027-0.145,0-0.198c0.047-0.11,0.236-0.282,0.265-0.397  c0.013-0.056-0.027-0.146,0-0.199c0.066-0.148,0.292-0.372,0.331-0.53c0.013-0.055-0.027-0.145,0-0.197  c0.145-0.33,0.511-0.778,0.596-1.126c0.008-0.04-0.017-0.163,0-0.199c0.178-0.401,0.482-0.858,0.662-1.259  c0.238-0.533,0.358-0.992,0.596-1.522c0.145-0.329,0.511-0.777,0.596-1.125c0.012-0.056-0.027-0.145,0-0.199  C46.402,49.573,46.783,49,46.975,48.482z"
     id="path75"
     style="fill:url(#linearGradient3828)" /><path
     d="M45.717,47.555c0.318,0.306,0.275,0.346,0.066,0.794c-2.381,5.061-4.788,10.134-7.151,15.23  c-0.358,0-0.704,0-1.06,0c1.165-2.517,2.363-4.995,3.51-7.549c0.134-0.303,0.393-0.627,0.529-0.928  c0.482-1.075,0.996-2.086,1.457-3.111c0.18-0.406,0.396-0.772,0.53-1.126c0.058-0.157-0.008-0.203,0.066-0.331  c0.033-0.062,0.157-0.081,0.198-0.132c0.199-0.267,0.416-0.542,0.596-0.795C44.914,48.964,45.312,48.219,45.717,47.555z"
     id="path77"
     style="fill:url(#linearGradient3828)" /><path
     d="M38.698,44.774c-0.209,1.063-0.346,2.355-0.729,3.311c-0.126,0.313-0.379,0.687-0.53,0.993  c-0.162,0.319-0.192,0.596-0.463,0.794c-0.667,0.484-0.576-0.095-0.397-0.662c0.114-0.37,0.438-0.78,0.596-1.125  c0.343-0.768,0.587-1.43,0.927-2.186C38.261,45.542,38.547,45.144,38.698,44.774z"
     id="path79" /><path
     d="M51.941,44.575c0.108,0.07,0.194,0.072,0.332,0.132c-0.275,0.588-0.456,1.111-0.729,1.722  c-0.943,2.103-1.942,4.19-2.913,6.357c-0.1,0.22-0.3,0.44-0.397,0.663c-1.529,3.405-3,6.748-4.569,10.131c-0.352,0-0.71,0-1.06,0  c0.017-0.091-0.077-0.063-0.066-0.199c0.008-0.117,0.499-1.107,0.596-1.324c0.161-0.366,0.435-0.77,0.596-1.125  c1.105-2.467,2.14-4.824,3.245-7.285c0.097-0.219,0.298-0.445,0.397-0.662c0.486-1.088,0.989-2.139,1.457-3.178  c0.218-0.488,0.305-1.031,0.596-1.457c0.188-0.279,0.583-0.468,0.795-0.729C50.854,46.831,51.547,45.556,51.941,44.575z"
     id="path81"
     style="fill:url(#linearGradient3828)" /><path
     d="M54.789,44.509c0.124-0.009,0.027,0.19,0,0.265c-0.145,0.373-0.437,0.768-0.596,1.125  c-0.188,0.417-0.271,0.78-0.464,1.192c-1.561,3.296-3.059,6.626-4.569,9.998c-0.96,2.141-2.146,4.238-2.98,6.49  c-0.352,0-0.71,0-1.06,0c0.002,0-0.25-0.157-0.132-0.265c0.265-0.249,0.373-0.774,0.53-1.126c0.358-0.813,0.834-1.656,1.192-2.449  c1.446-3.23,2.857-6.379,4.304-9.603c0.201-0.451,0.523-0.939,0.729-1.391c0.486-1.088,0.989-2.138,1.457-3.179  c0.058-0.134,0.116-0.532,0.198-0.596L54.789,44.509z"
     id="path83"
     style="fill:url(#linearGradient3828)" /><path
     d="M56.71,43.45c0.159,0.099,0.378,0.267,0.529,0.331c0.141,0.058,0.261-0.015,0.397,0.066  c0.039,0.023,0.037,0.184,0.066,0.199c-1.838,3.671-3.468,7.466-5.165,11.257c-1.222,2.721-2.639,5.385-3.775,8.211  c-0.358,0.027-0.931,0.066-1.391,0.066c0.385-0.832,0.807-1.707,1.192-2.517c0.778-1.646,1.409-3.255,2.185-4.899  c0.833-1.771,1.633-3.545,2.451-5.364c0.457-1.022,1.063-2.092,1.522-3.112C55.373,46.235,55.962,44.776,56.71,43.45z"
     id="path85"
     style="fill:url(#linearGradient3828)" /><path
     d="M65.517,43.317c0.004-0.017-0.019,0.281-0.066,0.397c-0.314,0.745-0.79,1.513-1.126,2.251  c-2.695,5.904-5.351,11.733-8.078,17.614c-0.505,0-1.021,0-1.523,0c0.636-1.637,1.486-3.146,2.186-4.701  c1.097-2.45,2.148-4.773,3.245-7.219c0.097-0.221,0.298-0.442,0.396-0.662c0.125-0.282,0.135-0.47,0.266-0.729  c0.026-0.056,0.184-0.213,0.198-0.265c0.013-0.056-0.027-0.145,0-0.199c0.083-0.188,0.35-0.468,0.397-0.662  c0.013-0.056-0.026-0.145,0-0.199c0.097-0.222,0.298-0.443,0.397-0.662c0.745-1.666,1.527-3.209,2.186-4.9  C64.589,43.406,64.973,43.358,65.517,43.317z"
     id="path87"
     style="fill:url(#linearGradient3828)" /><path
     d="M60.55,43.052c-3.159,6.808-6.046,13.717-9.204,20.528c-0.47,0-0.923,0-1.391,0  c0.575-1.416,1.306-2.807,1.921-4.172c1.682-3.758,3.371-7.488,5.032-11.191c0.497-1.109,0.98-2.185,1.457-3.245  c0.087-0.199,0.283-0.973,0.397-1.06c0.095-0.077,0.442-0.072,0.596-0.132C59.77,43.613,60.167,43.284,60.55,43.052z"
     id="path89"
     style="fill:url(#linearGradient3828)" /><path
     d="M67.636,41.463c0.416,0.091,0.771,0.133,1.258,0.199c-3.396,7.315-6.741,14.612-10.131,21.918  c-0.528,0-1.063,0-1.59,0c1.548-3.338,3.057-6.626,4.569-9.999c0.116-0.261,0.346-0.536,0.464-0.795  c0.546-1.223,1.128-2.402,1.655-3.576c0.32-0.718,0.544-1.347,0.86-2.053c0.089-0.203,0.346-0.453,0.397-0.662  c0.013-0.056-0.027-0.145,0-0.199c0.085-0.19,0.348-0.463,0.397-0.662c0.013-0.056-0.026-0.145,0-0.199  c0.114-0.256,0.348-0.54,0.463-0.794c0.27-0.603,0.547-1.171,0.795-1.722c0.139-0.311,0.159-0.588,0.332-0.861  C67.228,41.86,67.49,41.653,67.636,41.463z"
     id="path91"
     style="fill:url(#linearGradient3828)" /><path
     d="M62.537,41.397c0.178,0.532,0.465,0.921,0.662,1.391c0,0,0.145,0.12,0.066,0.199  c-0.325,0.314-0.4,0.879-0.597,1.324c-0.577,1.283-1.188,2.566-1.788,3.907c-0.574,1.279-1.189,2.57-1.787,3.907  c-0.098,0.214-0.303,0.446-0.397,0.662c-0.027,0.054,0.013,0.144,0,0.198c-0.039,0.156-0.267,0.386-0.331,0.53  c-0.159,0.353-0.174,0.573-0.331,0.927c-0.203,0.449-0.526,0.938-0.729,1.391c-1.171,2.609-2.317,5.174-3.51,7.748  c-0.484,0-0.975,0-1.457,0c1.308-2.82,2.556-5.613,3.841-8.477c0.095-0.213,0.303-0.45,0.397-0.662  c0.281-0.631,0.451-1.173,0.729-1.787c0.063-0.147,0.291-0.377,0.331-0.53c0.013-0.056-0.027-0.145,0-0.198  c0.066-0.149,0.292-0.373,0.331-0.53c0.013-0.056-0.026-0.145,0-0.198c0.437-0.975,1.019-2.007,1.457-2.98  C60.459,45.908,61.426,43.617,62.537,41.397z"
     id="path93"
     style="fill:url(#linearGradient3828)" /><path
     d="M94.917,37.357c0.257-0.025,0.468,0.025,0.597,0.132c0.141,0.116,0.292,0.759,0.397,0.994  c0.314,0.702,0.74,1.475,1.059,2.185c0.375,0.838,0.613,1.63,0.994,2.45c0.583-0.369,1.136-0.693,1.722-1.06  c0,0.435,0.062,1.32-0.066,1.722c-0.022,0-0.043,0-0.066,0c-0.128,0.062-0.226,0.292-0.331,0.397  c-0.499,0.491-0.952,1.041-1.457,1.523h-0.132v-0.132c-0.015-0.041-0.172-0.097-0.199-0.132c-0.18-0.238-0.287-0.488-0.464-0.729  c-0.724-0.979-1.541-1.908-2.251-2.914c-0.379,0.236-1.448,0.718-1.854,0.132c-0.263-0.38-0.089-1.136,0-1.523  C93.126,39.241,93.726,37.469,94.917,37.357z"
     id="path95"
     style="fill:url(#linearGradient3828);fill-opacity:1" /><path
     d="M69.424,37.159c0.091,0.046-0.066,0.133-0.066,0.133C69.368,37.246,69.31,37.101,69.424,37.159z"
     id="path97"
     style="fill:url(#linearGradient3828)" /><path
     d="M69.489,37.026c0.1,0.05-0.065,0.132-0.065,0.132C69.434,37.113,69.376,36.969,69.489,37.026z"
     id="path99"
     style="fill:url(#linearGradient3828)" /><path
     d="M69.556,36.894c0.091,0.045-0.066,0.132-0.066,0.132C69.5,36.981,69.442,36.836,69.556,36.894z"
     id="path101"
     style="fill:url(#linearGradient3828)" /><path
     d="M69.622,36.762c0.091,0.045-0.066,0.132-0.066,0.132C69.566,36.849,69.5,36.699,69.622,36.762z"
     id="path103"
     style="fill:url(#linearGradient3828)" /><path
     d="M69.688,36.629c0.091,0.046-0.066,0.133-0.066,0.133C69.633,36.716,69.575,36.571,69.688,36.629z"
     id="path105"
     style="fill:url(#linearGradient3828)" /><path
     d="M80.681,34.047c0.61,0,1.241,0,1.854,0c-4.564,9.833-8.949,19.77-13.508,29.6c-0.604,0-1.252,0-1.854,0  c1.148-2.481,2.189-4.922,3.312-7.417c0.148-0.333,0.581-0.931,0.661-1.258c0.013-0.056-0.026-0.146,0-0.198  c0.067-0.153,0.292-0.371,0.332-0.529c0.012-0.057-0.027-0.146,0-0.199c0.063-0.147,0.292-0.377,0.331-0.53  c0.012-0.056-0.027-0.145,0-0.198c0.063-0.145,0.292-0.375,0.331-0.53c0.013-0.056-0.027-0.145,0-0.198  c0.091-0.209,0.304-0.458,0.397-0.662c1.121-2.506,2.273-4.962,3.377-7.417C77.489,40.987,78.976,37.453,80.681,34.047z"
     id="path107"
     style="fill:url(#linearGradient3828)" /><path
     d="M78.23,34.047c0.575,0,1.145,0,1.722,0c-0.449,1.152-1.039,2.224-1.523,3.311  c-0.949,2.113-1.831,4.17-2.78,6.291c-0.203,0.449-0.526,0.938-0.729,1.391c-2.803,6.247-5.612,12.43-8.477,18.607  c-0.592,0-1.198,0-1.787,0c0.433-1.066,1.001-2.098,1.456-3.113c1.064-2.375,2.049-4.648,3.112-7.019  c0.089-0.202,0.307-0.464,0.397-0.661c1.409-3.148,2.763-6.199,4.172-9.337c0.093-0.209,0.302-0.454,0.397-0.663  c0.468-1.047,0.941-2.051,1.391-3.046c0.575-1.289,1.165-2.535,1.722-3.774c0.161-0.362,0.237-0.706,0.397-1.06  c0.07-0.162,0.267-0.364,0.33-0.53c0.061-0.161-0.016-0.207,0.066-0.331C78.108,34.092,78.223,34.061,78.23,34.047z"
     id="path109"
     style="fill:url(#linearGradient3828)" /><path
     d="M75.78,34.047c0.567,0,1.152,0,1.722,0c-4.579,9.864-9.126,19.725-13.707,29.6c-0.569,0-1.154,0-1.722,0  c1.128-2.809,2.558-5.437,3.774-8.145c2.229-4.973,4.523-9.794,6.755-14.767c0.115-0.261,0.345-0.536,0.463-0.795  c0.304-0.683,0.491-1.246,0.795-1.92c0.104-0.236,0.403-0.55,0.463-0.794c0.013-0.056-0.026-0.145,0-0.199  c0.098-0.221,0.298-0.443,0.397-0.662c0.102-0.232,0.091-0.385,0.199-0.596c0.051-0.108,0.235-0.286,0.265-0.397  c0.008-0.04-0.017-0.164,0-0.199C75.344,34.814,75.63,34.417,75.78,34.047z"
     id="path111"
     style="fill:url(#linearGradient3828)" /><path
     d="M73.396,33.98c0.603,0,0.985,0.066,1.589,0.066c-4.573,9.852-9.138,19.747-13.707,29.6  c-0.54,0-1.144-0.007-1.589-0.066c0.701-1.899,1.709-3.634,2.517-5.43c1.479-3.305,2.954-6.5,4.437-9.801  c0.219-0.492,0.573-1.032,0.795-1.523c0.657-1.471,1.351-2.889,1.986-4.304c0.08-0.182,0.213-0.774,0.331-0.861  c0.118-0.091,0.213-0.021,0.396-0.066c0.416-0.108,0.973-0.474,1.192-0.795c0.416-0.612,0.54-1.8,0.464-2.848  c-0.009-0.095-0.104-0.395-0.066-0.596l0.132-0.132c0.133-0.341,0.271-0.582,0.397-0.861C72.646,35.524,72.975,34.729,73.396,33.98z  "
     id="path113"
     style="fill:url(#linearGradient3828)" /><path
     d="M70.947,33.98c0.507,0,1.014,0,1.522,0c-0.34,0.832-0.751,1.637-1.126,2.45  c-0.702-0.668-1.106-0.527-1.655,0.199c0.102-0.275,0.146-0.476,0.265-0.728C70.247,35.271,70.615,34.566,70.947,33.98z"
     id="path115"
     style="fill:url(#linearGradient3828)" /><path
     d="M69.092,33.98c0.266,0,0.528,0,0.795,0c-0.376,0.807-0.745,1.618-1.125,2.384  c0.063-0.838,0.263-1.258,0.33-2.119C68.906,34.245,69.09,33.966,69.092,33.98z"
     id="path117"
     style="fill:url(#linearGradient3828)" /><path
     d="M61.08,33.914c0.381,0,0.761,0.025,1.059,0.066c-0.407,0.998-0.922,1.974-1.39,2.914  c0-0.277-0.037-0.619-0.066-0.795c-0.058-0.32-0.257-0.654-0.265-0.728C60.366,34.934,60.919,34.2,61.08,33.914z"
     id="path119"
     style="fill:url(#linearGradient3828)" /><path
     d="M58.563,33.914c0.368,0,0.756,0,1.126,0c-0.05,0.133-0.257,0.813-0.331,0.861  c-0.188,0.116-0.41,0.015-0.662,0.066c-0.218,0.043-0.516,0.192-0.729,0.265C58.166,34.676,58.351,34.289,58.563,33.914z"
     id="path121"
     style="fill:url(#linearGradient3828)" /><path
     d="M56.113,33.914c0.362,0,0.762,0,1.126,0c-0.235,0.505-0.42,0.989-0.662,1.523  c-0.072,0.158-0.265,0.369-0.331,0.53c-0.076,0.178-0.046,0.314-0.133,0.463c-0.021,0.033-0.176,0.1-0.198,0.133  c-0.08,0.105-0.063,0.221-0.133,0.331c-0.229,0.343-0.559,0.718-0.728,1.125c-0.28,0.658-0.386,1.333-0.597,2.053  c-0.77-0.482-0.991-0.497-0.596-1.391C54.562,37.093,55.344,35.452,56.113,33.914z"
     id="path123"
     style="fill:url(#linearGradient3828)" /><path
     d="M53.597,33.914c0.334,0,0.659,0,0.994,0c-0.508,1.091-0.896,2.138-1.391,3.245  c-0.068,0.149-0.266,0.379-0.331,0.53c-0.059,0.125-0.188,0.679-0.266,0.729c-0.12,0.072-0.852,0.116-0.993,0.132  c0.1-0.215,0.122-0.476,0.266-0.662c0.122-0.166,0.389-0.24,0.529-0.397c0.385-0.438,0.832-1.026,1.06-1.589  c0.139-0.348,0.277-0.898,0.199-1.391l-0.133-0.265C53.517,34.146,53.596,33.896,53.597,33.914z"
     id="path125"
     style="fill:url(#linearGradient3828)" /><path
     d="M48.829,33.848c0.257,0,0.536,0,0.795,0c-0.205,0.507-0.381,0.89-0.596,1.324  c-0.155-0.19-0.275-0.387-0.463-0.53c-0.033,0.207-0.132-0.199-0.132-0.199C48.509,34.248,48.738,34.011,48.829,33.848z"
     id="path127"
     style="fill:url(#linearGradient3828)" /><path
     d="M46.313,33.848c0.257,0,0.536,0,0.794,0c-0.339,0.912-0.817,1.68-1.191,2.516  c-0.079,0.17-0.166,0.664-0.265,0.794c-0.132,0.168-0.521,0.24-0.729,0.331c-0.105,0.043-0.283,0.151-0.397,0.199  c0.128-0.323,0.196-0.565,0.331-0.861C45.303,35.834,45.829,34.812,46.313,33.848z"
     id="path129"
     style="fill:url(#linearGradient3828)" /><path
     d="M43.797,33.848c0.236,0,0.49,0,0.729,0c-0.911,1.959-1.807,3.907-2.715,5.827  c-0.087,0.178-0.438,1.186-0.53,1.258c-0.097,0.073-0.217,0.006-0.331,0.066c-0.193,0.099-0.435,0.224-0.663,0.331  c0.205-0.443,0.321-0.801,0.53-1.258c0.087-0.194,0.348-0.459,0.397-0.662c0.008-0.039-0.017-0.164,0-0.199  c0.097-0.219,0.298-0.447,0.397-0.662c0.213-0.478,0.313-0.85,0.53-1.324c0.101-0.224,0.296-0.441,0.397-0.662  C42.96,35.617,43.356,34.725,43.797,33.848z"
     id="path131"
     style="fill:url(#linearGradient3828)" /><path
     d="M41.413,33.848c0.221,0,0.438,0,0.662,0c-0.428,1.049-1.008,2.04-1.457,3.046  c-0.027,0.054,0.013,0.143,0,0.199c-0.06,0.246-0.358,0.557-0.463,0.794c-0.027,0.054,0.012,0.143,0,0.199  c-0.05,0.199-0.313,0.472-0.397,0.662c-0.017,0.035,0.008,0.159,0,0.199c-0.06,0.246-0.36,0.559-0.463,0.794  c-0.195,0.433-0.271,0.757-0.463,1.192c-0.118,0.259-0.348,0.534-0.464,0.795c-0.026,0.054,0.013,0.143,0,0.198  c-0.049,0.201-0.312,0.468-0.397,0.663c-0.027,0.054,0.012,0.143,0,0.199c-0.081,0.333-0.623,1.154-0.794,1.523  c-0.079,0.164-0.075,0.408-0.199,0.53c-0.046,0.041-0.157-0.133,0-0.133c0-0.472-0.095-1.065,0-1.523  c0.01-0.054,0.178-0.219,0.199-0.265c0.136-0.323,0.194-0.561,0.331-0.861c1.207-2.676,2.525-5.283,3.708-8.012  C41.231,34.003,41.396,33.879,41.413,33.848z"
     id="path133"
     style="fill:url(#linearGradient3828)" /><path
     d="M38.896,33.848c0.192,0.006,0.401,0,0.596,0C39,34.903,38.584,35.88,38.102,36.96  c-0.354,0.785-0.797,1.534-1.125,2.384c0,0-0.125-0.062-0.133-0.066c-0.016-0.393-0.136-0.695-0.066-1.06  c0.021-0.114,0.215-0.292,0.265-0.397c0.255-0.569,0.47-1.074,0.729-1.59C38.166,35.439,38.516,34.607,38.896,33.848z"
     id="path135"
     style="fill:url(#linearGradient3828)" /><path
     d="M36.38,33.782c0.151,0.025,0.311,0,0.463,0c-0.318,0.815-0.67,1.589-0.993,2.384  c-0.104-0.097-0.232-0.236-0.331-0.331c-0.023,0.081-0.075-0.091-0.066-0.132c0.024-0.157,0.208-0.335,0.265-0.464  c0.11-0.26,0.091-0.401,0.199-0.662C36.026,34.301,36.248,34.016,36.38,33.782z"
     id="path137"
     style="fill:url(#linearGradient3828)" /><path
     d="M33.798,33.782c0.155,0.019,0.309,0,0.463,0c-0.207,0.445-0.465,0.892-0.662,1.324  c-0.497,1.084-0.9,2.084-1.391,3.179c-0.24,0.532-0.623,1.119-0.861,1.655c-0.027,0.054,0.013,0.143,0,0.199  c-0.06,0.244-0.36,0.561-0.463,0.794c-0.126,0.28-0.143,0.464-0.265,0.729c-0.639-0.238-0.476-0.211-0.198-0.794  c0.938-1.993,1.864-3.983,2.781-6.026c0.146-0.331,0.31-0.6,0.463-0.993L33.798,33.782z"
     id="path139"
     style="fill:url(#linearGradient3828)" /><path
     d="M31.215,33.782c0.118,0.025,0.275,0,0.397,0c-0.122,0.261-0.284,0.538-0.397,0.794  c-1.105,2.446-2.142,4.822-3.245,7.284c-0.068,0.149-0.265,0.379-0.331,0.53c-0.027,0.054,0.012,0.143,0,0.199  c-0.038,0.151-0.269,0.387-0.331,0.53c-0.155,0.341-0.178,0.583-0.331,0.927c-0.075,0.162-0.259,0.366-0.331,0.53  c-0.128,0.284-0.172,0.665-0.332,0.927c-0.093,0.149-0.504,0.523-0.662,0.596c-0.098,0.043-0.077-0.072-0.066-0.132  c0.006-0.052,0.178-0.219,0.199-0.265c0.209-0.488,0.397-0.89,0.596-1.324C28,40.83,29.492,37.227,31.215,33.782z"
     id="path141"
     style="fill:url(#linearGradient3828)" /><path
     d="M28.765,33.782c0.106,0.025,0.22,0,0.331,0c-0.527,1.134-0.997,2.268-1.523,3.443  c-0.515,1.146-1.055,2.313-1.589,3.51c-0.075,0.161-0.259,0.366-0.331,0.53c-0.133,0.292-0.135,0.5-0.265,0.794  c-0.29,0.644-0.706,1.341-0.994,1.986c-0.026,0.054,0.013,0.143,0,0.199c-0.029,0.116-0.217,0.288-0.265,0.397  c-0.027,0.054,0.013,0.143,0,0.199c-0.081,0.327-0.513,0.925-0.662,1.258c-0.027,0.054,0.012,0.143,0,0.199  c-0.085,0.35-0.449,0.797-0.596,1.125c-0.341,0.758-0.583,1.482-0.927,2.251c-0.288,0.638-0.708,1.348-0.993,1.986  c-0.027,0.055,0.012,0.143,0,0.199c-0.087,0.35-0.449,0.797-0.596,1.125c-0.027,0.055,0.013,0.144,0,0.199  c-0.039,0.153-0.267,0.383-0.331,0.529c-0.238,0.531-0.358,0.988-0.596,1.523c-0.068,0.148-0.265,0.379-0.332,0.53  c-1.169,2.604-2.247,5.165-3.443,7.747c-0.083-0.035-0.247,0-0.332,0c0.474-1.182,1.022-2.266,1.523-3.377  c2.01-4.486,3.946-8.892,5.96-13.376c0.48-1.076,1.107-2.237,1.589-3.311C25.852,40.199,27.195,36.921,28.765,33.782z"
     id="path143"
     style="fill:url(#linearGradient3828)" /><path
     d="M26.315,33.782c0.118-0.052,0.286,0.095,0.133,0.066c-0.559,1.384-1.111,2.673-1.722,4.039  c-2.411,5.376-4.936,10.837-7.35,16.224c-0.027,0.053,0.012,0.143,0,0.197c-0.029,0.115-0.217,0.286-0.265,0.398  c-0.027,0.053,0.013,0.143,0,0.198c-0.081,0.333-0.453,0.803-0.596,1.126c-0.027,0.054,0.012,0.143,0,0.198  c-0.073,0.294-0.406,0.71-0.53,0.993c-0.323,0.715-0.538,1.395-0.861,2.119c-0.159,0.354-0.436,0.768-0.596,1.126  c-0.219,0.486-0.308,0.894-0.53,1.391c-0.068,0.149-0.265,0.379-0.331,0.529c-0.164,0.36-0.188,0.735-0.397,1.06l-0.132,0.066  c0,0-0.248-0.159-0.132-0.265c0.273-0.257,0.627-1.278,0.794-1.655c2.701-6.13,5.492-12.213,8.211-18.276  c1.049-2.345,2.083-4.663,3.112-6.953c0.277-0.621,0.538-1.217,0.795-1.788c0.101-0.229,0.085-0.389,0.199-0.596  C26.15,33.918,26.234,33.813,26.315,33.782z"
     id="path145"
     style="fill:url(#linearGradient3828)" /><g
     id="g147"
     style="fill:url(#linearGradient3828)"><polygon
       points="90.293,39.526 90.965,39.675 92.577,36.099 91.763,36.265  "
       id="polygon149"
       style="fill:url(#linearGradient3828)" /><polygon
       points="84.343,44.265 83.041,44.222 86.375,37.357 91.763,36.265 92.732,34.113 82.932,34.047    69.357,63.646 79.29,63.646 82.507,56.594 82.386,53.869 83.943,53.444 90.293,39.526 88.472,39.123  "
       id="polygon151"
       style="fill:url(#linearGradient3828)" /></g></svg>